<svg width="24" height="24" viewBox="0 0 24 24" fill="none" xmlns="http://www.w3.org/2000/svg">
<path d="M12.4287 23.9521C14.264 23.6913 15.8729 21.7758 16.8853 18.947C15.4218 18.6192 13.9283 18.4433 12.4287 18.4224V23.9521Z" fill="#FFC700"/>
<path d="M15.3611 23.5021C15.4696 23.4707 15.5776 23.4391 15.6849 23.4043C15.7753 23.3752 15.8646 23.3438 15.9538 23.3126C16.0593 23.2761 16.1645 23.2386 16.2692 23.1988C16.3584 23.1649 16.4468 23.1289 16.5354 23.0929C16.6376 23.0499 16.7396 23.0072 16.8405 22.9643C16.9287 22.9255 17.0162 22.8849 17.1038 22.8441C17.2028 22.7974 17.3015 22.7498 17.3993 22.7004C17.4852 22.6566 17.5708 22.612 17.6567 22.5661C17.7528 22.5146 17.8483 22.462 17.9432 22.408C18.0291 22.3594 18.1118 22.3106 18.1954 22.2604C18.2883 22.2032 18.3809 22.146 18.4729 22.0888C18.5552 22.0365 18.6373 21.9833 18.7183 21.9284C18.8088 21.8675 18.898 21.804 18.9868 21.7405C19.0666 21.6834 19.146 21.6264 19.2239 21.569C19.3098 21.5028 19.3977 21.4343 19.4838 21.3657C19.5602 21.3047 19.6365 21.2442 19.7117 21.1816C19.7973 21.1104 19.8794 21.0366 19.9626 20.9629C20.0355 20.8982 20.1088 20.8341 20.18 20.7677C20.2619 20.6913 20.3416 20.6121 20.4214 20.5336C20.4906 20.4653 20.5605 20.3981 20.6282 20.3281C20.6407 20.3151 20.6527 20.3011 20.6656 20.2877C19.7301 19.8045 18.7447 19.4252 17.7266 19.1567C17.1972 20.8452 16.2549 22.3753 14.9854 23.6081C15.0201 23.5991 15.0549 23.5917 15.0897 23.5827C15.1814 23.557 15.2714 23.5287 15.3611 23.5021Z" fill="#FFC700"/>
<path d="M24.0001 12.4048H18.8572C18.8377 14.4129 18.5464 16.409 17.9912 18.3389C19.1234 18.6414 20.216 19.0762 21.2465 19.6343C22.9383 17.5952 23.9067 15.0529 24.0001 12.4048Z" fill="#FFC700"/>
<path d="M12.4287 11.5473H17.9991C17.9773 9.61019 17.6931 7.68506 17.1546 5.82422C15.6036 6.17796 14.0194 6.36687 12.4287 6.38781V11.5473Z" fill="#FFC700"/>
<path d="M12.4287 0V5.52972C13.9283 5.50857 15.4218 5.33285 16.8853 5.00509C15.8729 2.17624 14.264 0.260747 12.4287 0Z" fill="#FFC700"/>
<path d="M12.4287 17.5642C14.0194 17.5854 15.6036 17.7743 17.1546 18.128C17.6931 16.2672 17.9773 14.3419 17.9991 12.4048H12.4287V17.5642Z" fill="#FFC700"/>
<path d="M21.2465 4.31787C20.216 4.87602 19.1234 5.3108 17.9912 5.61323C18.5464 7.54318 18.8377 9.53931 18.8572 11.5474H24.0001C23.9065 8.89948 22.9381 6.35714 21.2465 4.31787Z" fill="#FFC700"/>
<path d="M20.6671 3.667C20.6545 3.65422 20.6426 3.6404 20.6302 3.62721C20.5624 3.55725 20.492 3.48982 20.4229 3.42175C20.3433 3.34321 20.2639 3.26384 20.1818 3.1876C20.1108 3.12142 20.0373 3.0588 19.9644 2.99283C19.8813 2.9191 19.7981 2.84475 19.7127 2.77355C19.6385 2.71093 19.5625 2.65103 19.4871 2.59092C19.4012 2.52139 19.3133 2.45227 19.2249 2.38588C19.1474 2.32745 19.0689 2.2709 18.9899 2.21435C18.9003 2.14985 18.8102 2.08555 18.7189 2.02419C18.6387 1.97015 18.5572 1.91737 18.4757 1.86564C18.383 1.80596 18.2904 1.74752 18.1959 1.69098C18.1132 1.64134 18.0296 1.59233 17.9459 1.54479C17.85 1.48992 17.7538 1.43672 17.6569 1.38478C17.571 1.34185 17.4853 1.29514 17.3995 1.25221C17.3008 1.20236 17.2013 1.1544 17.0993 1.10728C17.0135 1.06644 16.9263 1.02665 16.838 0.9879C16.7364 0.942872 16.6338 0.902241 16.5313 0.859307C16.443 0.823284 16.355 0.78768 16.2658 0.753752C16.1617 0.713959 16.0561 0.676679 15.9506 0.640238C15.8614 0.608822 15.7721 0.577616 15.6817 0.548295C15.5744 0.513529 15.4672 0.481904 15.357 0.45007C15.2678 0.423891 15.1782 0.397292 15.0879 0.373417C15.0534 0.363992 15.0182 0.356662 14.9834 0.347656C16.253 1.58039 17.195 3.11032 17.7247 4.799C18.7438 4.5305 19.7307 4.151 20.6671 3.667Z" fill="#FFC700"/>
<path d="M0 11.5474H5.1429C5.16237 9.53931 5.4537 7.54318 6.0087 5.61323C4.8767 5.31101 3.78408 4.87623 2.75366 4.31787C1.06184 6.35693 0.0934082 8.89948 0 11.5474Z" fill="#FFC700"/>
<path d="M11.5699 23.9521V18.4224C10.0703 18.4435 8.57682 18.6192 7.11328 18.947C8.12548 21.7758 9.73458 23.6913 11.5699 23.9521Z" fill="#FFC700"/>
<path d="M11.5713 12.4048H6.00098C6.02276 14.3419 6.30675 16.2672 6.84542 18.128C8.3965 17.7741 9.98045 17.5852 11.5713 17.5642V12.4048Z" fill="#FFC700"/>
<path d="M11.5699 0C9.73458 0.260747 8.12548 2.17624 7.11328 5.00509C8.57682 5.33306 10.0703 5.50878 11.5699 5.52972V0Z" fill="#FFC700"/>
<path d="M11.5713 6.38781C9.98066 6.36687 8.3965 6.17796 6.84542 5.82422C6.30675 7.68506 6.02276 9.61019 6.00098 11.5473H11.5713V6.38781Z" fill="#FFC700"/>
<path d="M9.015 0.347168C8.98023 0.356174 8.94547 0.363504 8.9107 0.37251C8.81981 0.396804 8.73017 0.423821 8.63969 0.450001C8.53204 0.481416 8.42523 0.513041 8.31716 0.547388C8.22605 0.576919 8.13642 0.608334 8.04678 0.63954C7.94185 0.67661 7.83671 0.713471 7.73283 0.752844C7.64319 0.787192 7.55481 0.822796 7.46601 0.859237C7.36402 0.902172 7.26181 0.945106 7.16107 0.987831C7.07269 1.02658 6.98536 1.06721 6.89781 1.10805C6.79875 1.15475 6.70011 1.20229 6.6023 1.25172C6.51643 1.29549 6.43056 1.34031 6.3449 1.38597C6.24877 1.43749 6.15348 1.49027 6.05881 1.5443C5.97294 1.59226 5.88854 1.64148 5.80581 1.69174C5.71262 1.74787 5.62046 1.80589 5.52873 1.86327C5.44621 1.91605 5.36432 1.96925 5.28327 2.02412C5.1928 2.08506 5.10358 2.14852 5.01478 2.21198C4.93498 2.26916 4.8556 2.32612 4.77748 2.38372C4.68973 2.44969 4.60596 2.51838 4.51757 2.58687C4.44134 2.64782 4.36448 2.70834 4.28992 2.77138C4.20405 2.84217 4.12258 2.91547 4.03985 2.98878C3.96655 3.05412 3.89262 3.11758 3.82099 3.18523C3.73952 3.26125 3.66014 3.34021 3.58056 3.41854C3.51144 3.48681 3.44107 3.55425 3.37322 3.62441C3.36086 3.6374 3.34892 3.65164 3.33594 3.66483C4.27128 4.14821 5.25688 4.5275 6.27495 4.79599C6.8044 3.10836 7.74603 1.57928 9.015 0.347168Z" fill="#FFC700"/>
<path d="M3.57707 20.5307C3.65686 20.6092 3.73624 20.6886 3.81813 20.7651C3.88934 20.831 3.96264 20.8937 4.03573 20.9596C4.11888 21.0336 4.20202 21.1077 4.28747 21.1789C4.36161 21.2411 4.43722 21.3012 4.51303 21.3615C4.5989 21.4311 4.68456 21.5002 4.77546 21.567C4.85274 21.625 4.93128 21.6811 5.00981 21.7387C5.09945 21.803 5.18993 21.8673 5.28124 21.9291C5.36146 21.9831 5.44293 22.0359 5.5244 22.0879C5.61718 22.1473 5.70975 22.2058 5.8042 22.2623C5.88693 22.3122 5.97049 22.361 6.05427 22.4087C6.15019 22.4636 6.24632 22.5168 6.34329 22.5685C6.42895 22.6114 6.51482 22.6581 6.60069 22.7011C6.69933 22.7509 6.79881 22.7989 6.90081 22.8462C6.98668 22.8866 7.0738 22.9264 7.16218 22.9654C7.26376 23.0104 7.36617 23.051 7.4688 23.094C7.55718 23.13 7.64514 23.1656 7.73436 23.1995C7.83845 23.2395 7.94401 23.2768 8.04956 23.3133C8.13878 23.3445 8.228 23.3759 8.31848 23.405C8.42571 23.4398 8.53294 23.4716 8.6431 23.5032C8.73232 23.5294 8.82196 23.556 8.91202 23.5801C8.94678 23.5895 8.98197 23.5968 9.01673 23.6058C7.74714 22.3729 6.8051 20.843 6.27543 19.1543C5.25737 19.423 4.27176 19.8023 3.33643 20.2859C3.34899 20.2987 3.36093 20.3125 3.3735 20.3257C3.43779 20.3952 3.50712 20.4626 3.57707 20.5307Z" fill="#FFC700"/>
<path d="M2.75366 19.6343C3.78408 19.0762 4.8767 18.6414 6.0087 18.3389C5.4537 16.409 5.16237 14.4129 5.1429 12.4048H0C0.0936176 15.0527 1.06184 17.595 2.75366 19.6343Z" fill="#FFC700"/>
</svg>
