<svg width="19" height="20" viewBox="0 0 19 20" fill="none" xmlns="http://www.w3.org/2000/svg">
<path d="M15.6964 18.1651L8.43102 14.3183C8.24168 14.2178 8.01077 14.2317 7.83182 14.3529L2.27631 18.1997C2.06849 18.3441 1.97844 18.6061 2.05464 18.8474C2.12853 19.0864 2.3525 19.2515 2.60419 19.2515H15.4251C15.6894 19.2515 15.9215 19.0714 15.985 18.8128C16.0496 18.5553 15.9296 18.2886 15.6964 18.1651Z" fill="black"/>
<path d="M18.1291 17.0684L16.4205 9.37583C16.3789 9.18765 16.2461 9.0341 16.0672 8.96367C15.8871 8.89325 15.685 8.91749 15.528 9.02602L9.97136 12.8729C9.80511 12.9883 9.71159 13.1811 9.72429 13.3808C9.73584 13.5829 9.85244 13.763 10.0302 13.8565L17.2944 17.7033C17.3799 17.7484 17.4722 17.7715 17.5646 17.7715C17.6881 17.7715 17.8117 17.7322 17.9144 17.6525C18.0934 17.5163 18.1776 17.2889 18.1291 17.0684Z" fill="black"/>
<path d="M14.1088 8.11129C14.0326 7.87 13.8098 7.70605 13.5569 7.70605H8.28772C7.32948 9.44129 5.91173 11.1003 5.3287 11.7492C5.00082 12.114 4.53094 12.3241 4.04027 12.3241C3.5496 12.3241 3.07971 12.114 2.75183 11.7492C2.5267 11.4986 2.17804 11.098 1.77858 10.6016L0.381614 16.8891C0.330816 17.1211 0.42664 17.3601 0.622907 17.4929C0.719887 17.5587 0.833029 17.591 0.945017 17.591C1.06047 17.591 1.17476 17.5575 1.27405 17.4882L13.8848 8.75666C14.0938 8.61466 14.1827 8.35258 14.1088 8.11129Z" fill="black"/>
<path d="M4.0408 0.779297C1.81259 0.779297 0 2.59188 0 4.82009C0 6.8936 3.24187 10.5661 3.61132 10.9783C3.721 11.0995 3.87686 11.1699 4.0408 11.1699C4.20474 11.1699 4.3606 11.0995 4.47027 10.9783C4.83972 10.5661 8.08159 6.8936 8.08159 4.82009C8.08159 2.59188 6.26901 0.779297 4.0408 0.779297ZM4.0408 6.55186C3.08486 6.55186 2.30903 5.77603 2.30903 4.82009C2.30903 3.86416 3.08486 3.08832 4.0408 3.08832C4.99673 3.08832 5.77257 3.86416 5.77257 4.82009C5.77257 5.77603 4.99673 6.55186 4.0408 6.55186Z" fill="black"/>
</svg>
