<svg width="24" height="25" viewBox="0 0 24 25" fill="none" xmlns="http://www.w3.org/2000/svg">
<path d="M20.4853 4.46688C18.2188 2.20038 15.2053 0.952148 12 0.952148C8.79469 0.952148 5.78119 2.20038 3.51469 4.46688C1.24819 6.73338 0 9.74684 0 12.9521C0 16.1575 1.24819 19.171 3.51469 21.4374C5.78119 23.7039 8.79469 24.9521 12 24.9521C15.2053 24.9521 18.2188 23.7039 20.4853 21.4374C22.7518 19.1709 24 16.1575 24 12.9521C24 9.74684 22.7518 6.73334 20.4853 4.46688ZM12 22.5968C6.68189 22.5968 2.35538 18.2702 2.35538 12.9521C2.35538 12.9434 2.35566 12.9348 2.3557 12.9262C2.3557 12.924 2.35538 12.9219 2.35538 12.9197C2.35538 12.916 2.35584 12.9124 2.35594 12.9087C2.37933 7.65438 6.62559 3.37952 11.8689 3.30921C11.8799 3.3087 11.8908 3.30757 11.9019 3.30757C11.9085 3.30757 11.915 3.30837 11.9216 3.30855C11.9478 3.30837 11.9738 3.30757 12 3.30757C17.3182 3.30757 21.6447 7.63413 21.6447 12.9522C21.6447 18.2703 17.3181 22.5968 12 22.5968Z" fill="#FFC700"/>
<path d="M19.3271 13.5316C18.935 13.5316 18.617 13.2137 18.617 12.8216C18.617 12.4294 18.935 12.1115 19.3271 12.1115H20.183C19.781 8.17044 16.5848 5.04402 12.6131 4.75049V5.49557C12.6131 5.88772 12.2952 6.20563 11.903 6.20563C11.5108 6.20563 11.1929 5.88772 11.1929 5.49557V4.76746C7.28 5.15089 4.16314 8.28786 3.8105 12.2096H4.577C4.96916 12.2096 5.28706 12.5275 5.28706 12.9197C5.28706 13.3118 4.96916 13.6297 4.577 13.6297H3.80469C4.13117 17.6146 7.31052 20.8037 11.2911 21.1458V20.2456C11.2911 19.8535 11.609 19.5356 12.0012 19.5356C12.3933 19.5356 12.7112 19.8535 12.7112 20.2456V21.1458C16.7244 20.8009 19.9231 17.5621 20.205 13.5316H19.3271ZM14.8755 11.082L12.5033 13.4543C12.3701 13.5875 12.1895 13.6623 12.0012 13.6623C11.8129 13.6623 11.6322 13.5875 11.4991 13.4543L7.36977 9.32497C7.09245 9.04771 7.09245 8.59813 7.36977 8.32082C7.64703 8.0435 8.09661 8.0435 8.37392 8.32082L12.0013 11.9481L13.8715 10.0779C14.1487 9.80057 14.5983 9.80057 14.8756 10.0779C15.1528 10.3551 15.1528 10.8048 14.8755 11.082Z" fill="#FFC700"/>
</svg>
